<?xml version="1.0" encoding="UTF-8"?>
<svg version="1.1" xmlns="http://www.w3.org/2000/svg" width="24" height="24">
<path d="M0 0 C6.6 0 13.2 0 20 0 C20 5.28 20 10.56 20 16 C13.4 16 6.8 16 0 16 C0 10.72 0 5.44 0 0 Z M2 2 C6.16575053 5.88519309 6.16575053 5.88519309 11 7 C13.48732954 5.84247651 15.67258405 4.47701397 18 3 C18 2.67 18 2.34 18 2 C12.72 2 7.44 2 2 2 Z M2 6 C2 8.64 2 11.28 2 14 C7.28 14 12.56 14 18 14 C18 11.36 18 8.72 18 6 C17.13375 6.515625 16.2675 7.03125 15.375 7.5625 C11.53197604 9.19934354 9.95815489 9.11860899 6 8 C3.625 6.9375 3.625 6.9375 2 6 Z " fill="#FFFFFF" transform="translate(2,4)"/>
</svg>
